# xmcd CD database file
#
# Track frame offsets:
#	150
#	43270
#	63419
#	83544
#	97438
#	109772
#	133718
#	148265
#	161010
#	181746
#	204357
#	218060
#	256343
#	270498
#	294902
#	336067
#
# Disc length: 4681 seconds
#
# Revision: 0
# Processed by: cddbd v1.5.1PL0 Copyright (c) Steve Scherf et al.
# Submitted via: CDex 1.51
#
DISCID=ef124710
DTITLE=Various Artist - STEPS TO VILLAGE VOL.2 CD3
DYEAR=1900
DGENRE=Jazz
TTITLE0=ART BLANKEY and JAZZ MESSENGERS - Moanin'
TTITLE1=AL JARREAU - One Note Samba
TTITLE2=CHET BAKER - Darn That Dream
TTITLE3=LENA HORNE - More Than You Know
TTITLE4=STAN KENTON ORCHESTRA - The Peanut Vendor
TTITLE5=DINAH WASHINGTON - I've Got You Under My Skin
TTITLE6=BILLIE HOLIDAY - Fine And Mellow
TTITLE7=ERROLL GARNER - Stardust
TTITLE8=RITA COOLIDGE - Black Coffee
TTITLE9=BEN WEBSTER - Flying Home
TTITLE10=COUNT BASIE - One O'Clock Jump
TTITLE11=STEPHANE GRAPPELLI and JOE VENUTI - I Can't Give You Anything But Love
TTITLE12=SIDNEY BECHET - Indian Summer
TTITLE13=AHMAD JAMAL - Autumn In New York
TTITLE14=WYNTON MARSALIS - My Funny Valentine
TTITLE15=GLENN MILLER - Monnlight Serenade
EXTD=
EXTT0=
EXTT1=
EXTT2=
EXTT3=
EXTT4=
EXTT5=
EXTT6=
EXTT7=
EXTT8=
EXTT9=
EXTT10=
EXTT11=
EXTT12=
EXTT13=
EXTT14=
EXTT15=
PLAYORDER=
